<svg width="18" height="17" viewBox="0 0 18 17" fill="none" xmlns="http://www.w3.org/2000/svg">
<path fill-rule="evenodd" clip-rule="evenodd" d="M8.99987 0C8.36012 0 7.84196 0.510783 7.84196 1.14114V5.32823C7.84196 5.95888 8.36012 6.47023 8.99987 6.47023C9.63927 6.47023 10.1569 5.95888 10.1569 5.32823V1.14114C10.1569 0.510783 9.63927 0 8.99987 0ZM1.05892 5.62268C0.609433 5.66071 0.204945 5.95732 0.0568342 6.40733C-0.140314 7.00734 0.19181 7.65163 0.799793 7.84642L4.83656 9.14046C5.44457 9.33525 6.09801 9.00707 6.29578 8.40737C6.4933 7.80768 6.16064 7.16306 5.55197 6.96828L1.5152 5.67511C1.3632 5.62633 1.20875 5.61 1.05892 5.62268ZM16.9408 5.62358C16.791 5.61083 16.6366 5.62626 16.4845 5.67513L12.4478 6.96918C11.8398 7.16396 11.5074 7.80857 11.7048 8.40827C11.9026 9.00792 12.5552 9.33558 13.1632 9.14049L17.2 7.84731C17.8079 7.65253 18.1407 7.00792 17.9429 6.40822C17.795 5.95848 17.3903 5.66183 16.9408 5.62358ZM6.68577 11.3292C6.31449 11.3168 5.94328 11.4804 5.70865 11.7993L3.21462 15.1869C2.83884 15.6975 2.95382 16.4121 3.47117 16.7824C3.98786 17.1528 4.71248 17.0387 5.08794 16.529L7.58197 13.1406C7.95809 12.6306 7.84221 11.9175 7.32456 11.5468C7.1308 11.4078 6.90854 11.3367 6.68577 11.3292ZM11.3148 11.3292C11.092 11.3367 10.8692 11.4078 10.6752 11.5468C10.1582 11.9175 10.0428 12.6306 10.4186 13.1406L12.9127 16.529C13.2881 17.0387 14.0128 17.1528 14.5294 16.7824C15.0468 16.4121 15.1618 15.6975 14.786 15.1869L12.292 11.7993C12.0573 11.4804 11.6863 11.3168 11.3148 11.3292Z" fill="black"/>
</svg>
