<svg width="24" height="24" viewBox="0 0 24 24" fill="none" xmlns="http://www.w3.org/2000/svg">
<path d="M16.3125 3C15.0586 3 13.8691 3.49512 12.9844 4.38281L11.8828 5.48438C10.9951 6.37207 10.5 7.55859 10.5 8.8125C10.5 9.40723 10.6143 9.9873 10.8281 10.5234L12.0469 9.30469C11.8945 8.33203 12.1904 7.28613 12.9375 6.53906L14.0391 5.4375C14.6426 4.83398 15.46 4.5 16.3125 4.5C17.165 4.5 17.959 4.83398 18.5625 5.4375C19.8076 6.68262 19.8076 8.71582 18.5625 9.96094L17.4609 11.0625C16.8574 11.666 16.04 12 15.1875 12C15.0205 12 14.8564 11.9824 14.6953 11.9531L13.4766 13.1719C14.0127 13.3857 14.5928 13.5 15.1875 13.5C16.4414 13.5 17.6309 13.0049 18.5156 12.1172L19.6172 11.0156C20.5049 10.1279 21 8.94141 21 7.6875C21 6.43359 20.5049 5.27051 19.6172 4.38281C18.7324 3.49512 17.5664 3 16.3125 3ZM14.4609 8.46094L8.46094 14.4609L9.53906 15.5391L15.5391 9.53906L14.4609 8.46094ZM8.8125 10.5C7.55859 10.5 6.36914 10.9951 5.48438 11.8828L4.38281 12.9844C3.49512 13.8721 3 15.0586 3 16.3125C3 17.5664 3.49512 18.7295 4.38281 19.6172C5.26758 20.5049 6.43359 21 7.6875 21C8.94141 21 10.1309 20.5049 11.0156 19.6172L12.1172 18.5156C13.0049 17.6279 13.5 16.4414 13.5 15.1875C13.5 14.5928 13.3857 14.0127 13.1719 13.4766L11.9531 14.6953C12.1055 15.668 11.8096 16.7139 11.0625 17.4609L9.96094 18.5625C9.35742 19.166 8.54004 19.5 7.6875 19.5C6.83496 19.5 6.04102 19.166 5.4375 18.5625C4.19238 17.3174 4.19238 15.2842 5.4375 14.0391L6.53906 12.9375C7.14258 12.334 7.95996 12 8.8125 12C8.97949 12 9.14355 12.0176 9.30469 12.0469L10.5234 10.8281C9.9873 10.6143 9.40723 10.5 8.8125 10.5Z" fill="black"/>
</svg>
