<svg width="17" height="17" viewBox="0 0 17 17" fill="none" xmlns="http://www.w3.org/2000/svg">
<path d="M8.5 0C6.24566 0 4.08365 0.895533 2.48959 2.48959C0.895533 4.08365 0 6.24566 0 8.5C0 10.7543 0.895533 12.9163 2.48959 14.5104C4.08365 16.1045 6.24566 17 8.5 17C10.7543 17 12.9163 16.1045 14.5104 14.5104C16.1045 12.9163 17 10.7543 17 8.5C17 6.24566 16.1045 4.08365 14.5104 2.48959C12.9163 0.895533 10.7543 0 8.5 0ZM11.5104 0.793333C11.7371 0.793333 11.9708 0.814583 12.1196 0.864167C10.5825 1.18292 9.35708 2.61375 9.36417 4.25C9.36417 4.28542 9.36417 4.32792 9.37125 4.37042C11.9496 5.00083 13.1042 6.55208 13.1042 8.69833C13.1325 10.8446 11.4325 13.2033 8.56375 13.2104C6.2475 13.2175 3.83208 11.2342 3.81792 8.05375C3.81083 5.95 4.95833 3.92417 6.40333 2.72708C7.82 1.55125 9.75375 0.800417 11.5104 0.793333Z" fill="black"/>
</svg>
