<svg width="200" height="70" viewBox="0 0 200 70" fill="none" xmlns="http://www.w3.org/2000/svg">
<path d="M36.9688 7.10156L37 7.05371L74 30.3721V32.582L72.3262 35.2275L36.9092 12.9062L1.68359 35.2217L0 32.5742V30.3691L36.9004 6.99414L36.9688 7.10156Z" fill="url(#paint0_linear_636_357)"/>
<path d="M40 69H35V35.3564L40 30.7148V69Z" fill="url(#paint1_linear_636_357)"/>
<path d="M74 36H60V69H55V36H46.7871L41.3711 31H74V36Z" fill="url(#paint2_linear_636_357)"/>
<path d="M25.9678 35.9941H5V46H18.877L18.875 45.959C22.7508 45.7649 25.9237 47.0612 28.1357 49.2764C30.3089 51.4527 31.4229 54.3821 31.4961 57.2734C31.5692 60.1684 30.5997 63.1602 28.4316 65.417C26.426 67.5046 23.5592 68.7926 20 68.9268V69H0V31H5V30.9941H31.3262L25.9678 35.9941ZM20.4834 51H5V64H19.0625L19.0645 63.9355C21.9078 64.0089 23.7249 63.0994 24.8262 61.9531C25.9612 60.7717 26.5416 59.1251 26.498 57.4004C26.4544 55.6722 25.7858 53.9995 24.5977 52.8096C23.6642 51.8748 22.323 51.1488 20.4834 50.9775V51Z" fill="url(#paint3_linear_636_357)"/>
<path d="M37 26H34V23H37V26ZM41 26H38V23H41V26ZM37 22H34V19H37V22ZM41 22H38V19H41V22Z" fill="url(#paint4_linear_636_357)"/>
<path d="M75.62 19V6.4H82.316V7.804H77.024V11.692H79.364C80.204 11.692 80.912 11.848 81.488 12.16C82.064 12.46 82.496 12.886 82.784 13.438C83.084 13.99 83.234 14.644 83.234 15.4C83.234 16.576 82.88 17.47 82.172 18.082C81.464 18.694 80.522 19 79.346 19H75.62ZM77.024 17.74H79.364C80.096 17.74 80.69 17.542 81.146 17.146C81.602 16.75 81.83 16.168 81.83 15.4C81.83 14.596 81.602 13.99 81.146 13.582C80.69 13.162 80.096 12.952 79.364 12.952H77.024V17.74ZM85.9606 22.96L85.4386 21.664C86.0626 21.484 86.5186 21.19 86.8066 20.782C87.0946 20.374 87.3286 19.876 87.5086 19.288L87.7426 18.514L84.5026 10H86.0146L88.1746 15.67L88.3366 16.642C88.3606 16.738 88.4026 16.786 88.4626 16.786C88.5346 16.786 88.5766 16.738 88.5886 16.642L88.8046 15.67L90.5506 10H92.0446L88.8586 19.864C88.6186 20.608 88.2586 21.244 87.7786 21.772C87.2986 22.3 86.6926 22.696 85.9606 22.96ZM92.2194 21.34V17.74H92.7414C92.9574 17.608 93.1374 17.452 93.2814 17.272C93.4374 17.08 93.5454 16.864 93.6054 16.624C93.7014 16.204 93.7794 15.706 93.8394 15.13C93.8994 14.554 93.9474 13.852 93.9834 13.024C94.0194 12.184 94.0434 11.176 94.0554 10H99.6894V17.74H100.769V21.34H99.4734V19H93.5154V21.34H92.2194ZM94.8114 17.74H98.2494V11.26H95.4234C95.3994 12.436 95.3454 13.486 95.2614 14.41C95.1774 15.334 95.1054 16 95.0454 16.408L94.6134 17.416C94.5294 17.632 94.5954 17.74 94.8114 17.74ZM102.794 19V10H104.234V15.49L104.036 16.696C104.024 16.78 104.048 16.84 104.108 16.876C104.168 16.9 104.222 16.87 104.27 16.786L108.284 10H109.634V19H108.194V13.528L108.374 12.358C108.398 12.262 108.38 12.202 108.32 12.178C108.26 12.142 108.194 12.184 108.122 12.304L104.162 19H102.794ZM112.69 19V10H114.13V13.78H117.856V10H119.296V19H117.856V15.04H114.13V19H112.69ZM125.418 19.198C124.374 19.198 123.558 18.904 122.97 18.316C122.382 17.716 122.034 16.972 121.926 16.084C121.854 15.508 121.818 14.986 121.818 14.518C121.818 14.266 121.824 14.014 121.836 13.762C121.86 13.498 121.89 13.216 121.926 12.916C122.034 12.016 122.382 11.272 122.97 10.684C123.558 10.096 124.374 9.802 125.418 9.802C126.462 9.802 127.278 10.096 127.866 10.684C128.454 11.272 128.802 12.016 128.91 12.916C128.982 13.504 129.018 14.038 129.018 14.518C129.018 14.986 128.982 15.508 128.91 16.084C128.802 16.972 128.454 17.716 127.866 18.316C127.278 18.904 126.462 19.198 125.418 19.198ZM125.418 17.956C126.078 17.956 126.582 17.764 126.93 17.38C127.278 16.996 127.476 16.546 127.524 16.03C127.572 15.49 127.596 14.992 127.596 14.536C127.596 14.068 127.572 13.558 127.524 13.006C127.476 12.478 127.278 12.028 126.93 11.656C126.582 11.272 126.078 11.08 125.418 11.08C124.758 11.08 124.248 11.272 123.888 11.656C123.528 12.028 123.33 12.478 123.294 13.006C123.258 13.558 123.24 14.068 123.24 14.536C123.24 14.992 123.264 15.49 123.312 16.03C123.372 16.546 123.57 16.996 123.906 17.38C124.254 17.764 124.758 17.956 125.418 17.956ZM131.534 19V10H133.01V13.78H134.252L136.538 10H138.068L135.314 14.662L135.116 13.762L138.23 19H136.61L134.216 15.04H133.01V19H131.534ZM74.9 44V42.632H77.06V32.768H74.9V31.4H80.714V32.768H78.554V42.632H80.714V44H74.9ZM83.1413 44V35H84.5813V38.78H88.3073V35H89.7473V44H88.3073V40.04H84.5813V44H83.1413ZM96.5893 48.536V44.234C96.5893 44.03 96.4933 43.94 96.3013 43.964L95.1313 44.054C94.6873 43.994 94.2673 43.832 93.8713 43.568C93.4753 43.304 93.1453 42.962 92.8813 42.542C92.6173 42.122 92.4493 41.648 92.3773 41.12C92.3413 40.82 92.3113 40.544 92.2873 40.292C92.2753 40.028 92.2693 39.77 92.2693 39.518C92.2693 39.266 92.2753 39.014 92.2873 38.762C92.3113 38.498 92.3413 38.216 92.3773 37.916C92.4253 37.388 92.5813 36.914 92.8453 36.494C93.1213 36.074 93.4573 35.732 93.8533 35.468C94.2613 35.192 94.6873 35.03 95.1313 34.982L96.3013 35.072C96.4933 35.096 96.5893 35.006 96.5893 34.802V30.5H97.9213V34.802C97.9213 35.006 98.0173 35.096 98.2093 35.072L99.3793 34.982C99.8233 35.03 100.243 35.192 100.639 35.468C101.035 35.732 101.365 36.074 101.629 36.494C101.905 36.914 102.073 37.388 102.133 37.916C102.169 38.216 102.193 38.498 102.205 38.762C102.229 39.014 102.241 39.266 102.241 39.518C102.241 39.77 102.229 40.028 102.205 40.292C102.193 40.544 102.169 40.82 102.133 41.12C102.073 41.648 101.905 42.122 101.629 42.542C101.365 42.962 101.035 43.304 100.639 43.568C100.243 43.832 99.8233 43.994 99.3793 44.054L98.2093 43.964C98.0173 43.94 97.9213 44.03 97.9213 44.234V48.536H96.5893ZM96.5893 43.046V35.99C95.6653 35.99 94.9813 36.194 94.5373 36.602C94.0933 37.01 93.8413 37.478 93.7813 38.006C93.7573 38.282 93.7333 38.546 93.7093 38.798C93.6973 39.05 93.6913 39.296 93.6913 39.536C93.6913 39.992 93.7273 40.49 93.7993 41.03C93.8833 41.558 94.1353 42.026 94.5553 42.434C94.9873 42.842 95.6653 43.046 96.5893 43.046ZM97.9213 43.046C98.8453 43.046 99.5173 42.842 99.9373 42.434C100.369 42.026 100.627 41.558 100.711 41.03C100.759 40.754 100.789 40.496 100.801 40.256C100.825 40.004 100.837 39.764 100.837 39.536C100.837 39.068 100.801 38.558 100.729 38.006C100.669 37.478 100.417 37.01 99.9733 36.602C99.5293 36.194 98.8453 35.99 97.9213 35.99V43.046ZM107.822 44.198C106.778 44.198 105.962 43.904 105.374 43.316C104.786 42.716 104.438 41.972 104.33 41.084C104.258 40.508 104.222 39.986 104.222 39.518C104.222 39.266 104.228 39.014 104.24 38.762C104.264 38.498 104.294 38.216 104.33 37.916C104.438 37.016 104.786 36.272 105.374 35.684C105.962 35.096 106.778 34.802 107.822 34.802C108.866 34.802 109.682 35.096 110.27 35.684C110.858 36.272 111.206 37.016 111.314 37.916C111.386 38.504 111.422 39.038 111.422 39.518C111.422 39.986 111.386 40.508 111.314 41.084C111.206 41.972 110.858 42.716 110.27 43.316C109.682 43.904 108.866 44.198 107.822 44.198ZM107.822 42.956C108.482 42.956 108.986 42.764 109.334 42.38C109.682 41.996 109.88 41.546 109.928 41.03C109.976 40.49 110 39.992 110 39.536C110 39.068 109.976 38.558 109.928 38.006C109.88 37.478 109.682 37.028 109.334 36.656C108.986 36.272 108.482 36.08 107.822 36.08C107.162 36.08 106.652 36.272 106.292 36.656C105.932 37.028 105.734 37.478 105.698 38.006C105.662 38.558 105.644 39.068 105.644 39.536C105.644 39.992 105.668 40.49 105.716 41.03C105.776 41.546 105.974 41.996 106.31 42.38C106.658 42.764 107.162 42.956 107.822 42.956ZM113.938 47.6V35H115.378V35.504C115.618 35.3 115.93 35.138 116.314 35.018C116.698 34.886 117.1 34.82 117.52 34.82C118.564 34.82 119.362 35.108 119.914 35.684C120.466 36.248 120.784 36.986 120.868 37.898C120.892 38.198 120.91 38.474 120.922 38.726C120.934 38.978 120.94 39.23 120.94 39.482C120.94 39.722 120.934 39.974 120.922 40.238C120.91 40.49 120.892 40.772 120.868 41.084C120.784 41.996 120.466 42.74 119.914 43.316C119.362 43.892 118.564 44.18 117.52 44.18C117.316 44.18 117.154 44.168 117.034 44.144C116.926 44.132 116.8 44.114 116.656 44.09L115.756 43.514C115.66 43.454 115.57 43.448 115.486 43.496C115.414 43.532 115.378 43.604 115.378 43.712V47.6H113.938ZM117.358 42.956C118.078 42.956 118.594 42.764 118.906 42.38C119.23 41.996 119.416 41.534 119.464 40.994C119.5 40.502 119.518 40.004 119.518 39.5C119.53 38.996 119.512 38.498 119.464 38.006C119.416 37.466 119.23 37.01 118.906 36.638C118.594 36.266 118.078 36.08 117.358 36.08C116.734 36.08 116.248 36.224 115.9 36.512C115.552 36.788 115.378 37.172 115.378 37.664V41.336C115.378 41.816 115.552 42.206 115.9 42.506C116.248 42.806 116.734 42.956 117.358 42.956ZM123.466 44V35H124.69L127.714 40.22C127.774 40.328 127.84 40.382 127.912 40.382C127.984 40.382 128.05 40.328 128.11 40.22L131.134 35H132.358V44H130.954V39.068L131.134 37.934C131.146 37.85 131.122 37.796 131.062 37.772C131.014 37.748 130.96 37.784 130.9 37.88L128.362 42.11H127.462L124.924 37.88C124.876 37.784 124.822 37.748 124.762 37.772C124.702 37.796 124.678 37.85 124.69 37.934L124.87 39.068V44H123.466ZM140.603 44.216L140.009 43.334C139.937 43.226 139.853 43.214 139.757 43.298C139.469 43.55 139.163 43.766 138.839 43.946C138.527 44.114 138.107 44.198 137.579 44.198C136.727 44.198 136.049 43.964 135.545 43.496C135.041 43.028 134.789 42.416 134.789 41.66C134.789 41.12 134.903 40.664 135.131 40.292C135.371 39.92 135.707 39.638 136.139 39.446C136.571 39.242 137.075 39.14 137.651 39.14H139.757V37.844C139.757 37.328 139.607 36.914 139.307 36.602C139.007 36.29 138.533 36.134 137.885 36.134C137.417 36.134 136.997 36.206 136.625 36.35C136.253 36.482 135.875 36.698 135.491 36.998L135.041 35.738C135.497 35.39 135.959 35.144 136.427 35C136.895 34.856 137.411 34.784 137.975 34.784C139.043 34.784 139.835 35.06 140.351 35.612C140.879 36.164 141.143 36.854 141.143 37.682V42.272L141.917 43.424L140.603 44.216ZM137.651 42.956C138.299 42.956 138.809 42.8 139.181 42.488C139.565 42.176 139.757 41.762 139.757 41.246V40.436C139.757 40.208 139.649 40.124 139.433 40.184L138.443 40.4H137.759C137.279 40.4 136.901 40.508 136.625 40.724C136.361 40.928 136.229 41.222 136.229 41.606C136.229 42.002 136.355 42.326 136.607 42.578C136.871 42.83 137.219 42.956 137.651 42.956ZM144.26 44V35H145.7V42.74H149.48V35H150.92V44H144.26ZM150.704 46.34V42.74H152V46.34H150.704ZM154.875 44V36.26H153.615V35H156.315V44H154.875ZM154.875 33.2V31.4H156.315V33.2H154.875ZM159.378 44V35H160.818V40.49L160.62 41.696C160.608 41.78 160.632 41.84 160.692 41.876C160.752 41.9 160.806 41.87 160.854 41.786L164.868 35H166.218V44H164.778V38.528L164.958 37.358C164.982 37.262 164.964 37.202 164.904 37.178C164.844 37.142 164.778 37.184 164.706 37.304L160.746 44H159.378ZM162.708 33.074C162.072 33.074 161.49 32.906 160.962 32.57C160.446 32.234 160.104 31.718 159.936 31.022L161.016 30.716C161.16 31.124 161.364 31.442 161.628 31.67C161.904 31.898 162.264 32.012 162.708 32.012C163.164 32.012 163.524 31.898 163.788 31.67C164.052 31.442 164.256 31.124 164.4 30.716L165.48 31.022C165.324 31.718 164.982 32.234 164.454 32.57C163.926 32.906 163.344 33.074 162.708 33.074ZM169.274 44V35H170.714V38.78H174.44V35H175.88V44H174.44V40.04H170.714V44H169.274ZM178.942 44V35H180.382V40.49L180.184 41.696C180.172 41.78 180.196 41.84 180.256 41.876C180.316 41.9 180.37 41.87 180.418 41.786L184.432 35H185.782V44H184.342V38.528L184.522 37.358C184.546 37.262 184.528 37.202 184.468 37.178C184.408 37.142 184.342 37.184 184.27 37.304L180.31 44H178.942ZM187.849 44L190.693 39.5L187.849 35H189.541L191.125 37.736L191.449 38.528C191.473 38.588 191.515 38.618 191.575 38.618C191.635 38.618 191.677 38.588 191.701 38.528L192.025 37.736L193.573 35H195.265L192.457 39.5L195.265 44H193.573L192.025 41.264L191.701 40.472C191.677 40.412 191.635 40.382 191.575 40.382C191.515 40.382 191.473 40.412 191.449 40.472L191.125 41.264L189.541 44H187.849ZM77.636 69V57.804H74.54V56.4H82.244V57.804H79.13V69H77.636ZM85.8339 69.18C85.1019 69.18 84.4839 69.048 83.9799 68.784C83.4759 68.508 83.0799 68.136 82.7919 67.668C82.5159 67.2 82.3419 66.672 82.2699 66.084C82.2339 65.796 82.2039 65.526 82.1799 65.274C82.1679 65.022 82.1619 64.77 82.1619 64.518C82.1619 64.038 82.1979 63.504 82.2699 62.916C82.3659 62.028 82.7019 61.29 83.2779 60.702C83.8659 60.114 84.6639 59.82 85.6719 59.82C86.4039 59.82 86.9919 59.952 87.4359 60.216C87.8799 60.48 88.2159 60.822 88.4439 61.242C88.6719 61.662 88.8219 62.106 88.8939 62.574C88.9779 63.042 89.0199 63.474 89.0199 63.87L88.6599 64.824L83.2239 64.806V63.564H87.6519C87.6519 63.156 87.5979 62.766 87.4899 62.394C87.3939 62.01 87.2019 61.698 86.9139 61.458C86.6259 61.206 86.2119 61.08 85.6719 61.08C85.0359 61.08 84.5439 61.278 84.1959 61.674C83.8479 62.058 83.6499 62.502 83.6019 63.006C83.5779 63.306 83.5539 63.72 83.5299 64.248C83.5179 64.764 83.5479 65.352 83.6199 66.012C83.6799 66.528 83.8779 66.984 84.2139 67.38C84.5619 67.764 85.1019 67.956 85.8339 67.956C86.2899 67.956 86.7219 67.884 87.1299 67.74C87.5499 67.596 87.9279 67.392 88.2639 67.128L88.6959 68.226C88.2039 68.574 87.7539 68.82 87.3459 68.964C86.9379 69.108 86.4339 69.18 85.8339 69.18ZM90.0263 69L92.8703 64.5L90.0263 60H91.7183L93.3023 62.736L93.6263 63.528C93.6503 63.588 93.6923 63.618 93.7523 63.618C93.8123 63.618 93.8543 63.588 93.8783 63.528L94.2023 62.736L95.7503 60H97.4423L94.6343 64.5L97.4423 69H95.7503L94.2023 66.264L93.8783 65.472C93.8543 65.412 93.8123 65.382 93.7523 65.382C93.6923 65.382 93.6503 65.412 93.6263 65.472L93.3023 66.264L91.7183 69H90.0263ZM99.5066 69V60H100.947V63.78H104.673V60H106.113V69H104.673V65.04H100.947V69H99.5066ZM112.235 69.198C111.191 69.198 110.375 68.904 109.787 68.316C109.199 67.716 108.851 66.972 108.743 66.084C108.671 65.508 108.635 64.986 108.635 64.518C108.635 64.266 108.641 64.014 108.653 63.762C108.677 63.498 108.707 63.216 108.743 62.916C108.851 62.016 109.199 61.272 109.787 60.684C110.375 60.096 111.191 59.802 112.235 59.802C113.279 59.802 114.095 60.096 114.683 60.684C115.271 61.272 115.619 62.016 115.727 62.916C115.799 63.504 115.835 64.038 115.835 64.518C115.835 64.986 115.799 65.508 115.727 66.084C115.619 66.972 115.271 67.716 114.683 68.316C114.095 68.904 113.279 69.198 112.235 69.198ZM112.235 67.956C112.895 67.956 113.399 67.764 113.747 67.38C114.095 66.996 114.293 66.546 114.341 66.03C114.389 65.49 114.413 64.992 114.413 64.536C114.413 64.068 114.389 63.558 114.341 63.006C114.293 62.478 114.095 62.028 113.747 61.656C113.399 61.272 112.895 61.08 112.235 61.08C111.575 61.08 111.065 61.272 110.705 61.656C110.345 62.028 110.147 62.478 110.111 63.006C110.075 63.558 110.057 64.068 110.057 64.536C110.057 64.992 110.081 65.49 110.129 66.03C110.189 66.546 110.387 66.996 110.723 67.38C111.071 67.764 111.575 67.956 112.235 67.956ZM117.648 69.18L117.198 68.01C117.57 67.902 117.888 67.734 118.152 67.506C118.428 67.266 118.608 66.972 118.692 66.624C118.788 66.204 118.866 65.706 118.926 65.13C118.986 64.554 119.034 63.852 119.07 63.024C119.106 62.184 119.13 61.176 119.142 60H124.65V69H123.21V61.26H120.51C120.486 62.436 120.426 63.504 120.33 64.464C120.234 65.424 120.132 66.216 120.024 66.84C119.892 67.524 119.61 68.052 119.178 68.424C118.758 68.796 118.248 69.048 117.648 69.18ZM130.762 69.198C129.718 69.198 128.902 68.904 128.314 68.316C127.726 67.716 127.378 66.972 127.27 66.084C127.198 65.508 127.162 64.986 127.162 64.518C127.162 64.266 127.168 64.014 127.18 63.762C127.204 63.498 127.234 63.216 127.27 62.916C127.378 62.016 127.726 61.272 128.314 60.684C128.902 60.096 129.718 59.802 130.762 59.802C131.806 59.802 132.622 60.096 133.21 60.684C133.798 61.272 134.146 62.016 134.254 62.916C134.326 63.504 134.362 64.038 134.362 64.518C134.362 64.986 134.326 65.508 134.254 66.084C134.146 66.972 133.798 67.716 133.21 68.316C132.622 68.904 131.806 69.198 130.762 69.198ZM130.762 67.956C131.422 67.956 131.926 67.764 132.274 67.38C132.622 66.996 132.82 66.546 132.868 66.03C132.916 65.49 132.94 64.992 132.94 64.536C132.94 64.068 132.916 63.558 132.868 63.006C132.82 62.478 132.622 62.028 132.274 61.656C131.926 61.272 131.422 61.08 130.762 61.08C130.102 61.08 129.592 61.272 129.232 61.656C128.872 62.028 128.674 62.478 128.638 63.006C128.602 63.558 128.584 64.068 128.584 64.536C128.584 64.992 128.608 65.49 128.656 66.03C128.716 66.546 128.914 66.996 129.25 67.38C129.598 67.764 130.102 67.956 130.762 67.956ZM136.878 69V60H142.188V61.26H138.318V69H136.878ZM144.89 69V61.26H143.63V60H146.33V69H144.89ZM144.89 58.2V56.4H146.33V58.2H144.89ZM149.393 69V60H150.833V65.49L150.635 66.696C150.623 66.78 150.647 66.84 150.707 66.876C150.767 66.9 150.821 66.87 150.869 66.786L154.883 60H156.233V69H154.793V63.528L154.973 62.358C154.997 62.262 154.979 62.202 154.919 62.178C154.859 62.142 154.793 62.184 154.721 62.304L150.761 69H149.393ZM152.723 58.074C152.087 58.074 151.505 57.906 150.977 57.57C150.461 57.234 150.119 56.718 149.951 56.022L151.031 55.716C151.175 56.124 151.379 56.442 151.643 56.67C151.919 56.898 152.279 57.012 152.723 57.012C153.179 57.012 153.539 56.898 153.803 56.67C154.067 56.442 154.271 56.124 154.415 55.716L155.495 56.022C155.339 56.718 154.997 57.234 154.469 57.57C153.941 57.906 153.359 58.074 152.723 58.074Z" fill="black" fill-opacity="0.8"/>
<defs>
<linearGradient id="paint0_linear_636_357" x1="74" y1="30.4941" x2="13" y2="10.9941" gradientUnits="userSpaceOnUse">
<stop stop-color="#0071DF"/>
<stop offset="1" stop-color="#003D79"/>
</linearGradient>
<linearGradient id="paint1_linear_636_357" x1="38" y1="68.9941" x2="38" y2="22.4941" gradientUnits="userSpaceOnUse">
<stop stop-color="#003D79"/>
<stop offset="1" stop-color="#0071DF"/>
</linearGradient>
<linearGradient id="paint2_linear_636_357" x1="58" y1="68.9941" x2="58" y2="30.9941" gradientUnits="userSpaceOnUse">
<stop stop-color="#003D79"/>
<stop offset="1" stop-color="#0071DF"/>
</linearGradient>
<linearGradient id="paint3_linear_636_357" x1="20" y1="40.9941" x2="50" y2="26.9941" gradientUnits="userSpaceOnUse">
<stop stop-color="#003D79"/>
<stop offset="1" stop-color="#0071DF"/>
</linearGradient>
<linearGradient id="paint4_linear_636_357" x1="34" y1="25.9941" x2="41" y2="18.9941" gradientUnits="userSpaceOnUse">
<stop stop-color="#003D79"/>
<stop offset="1" stop-color="#0071DF"/>
</linearGradient>
</defs>
</svg>
