<svg width="200" height="109" viewBox="0 0 200 109" fill="none" xmlns="http://www.w3.org/2000/svg">
<path d="M36.9688 27.1016L37 27.0537L74 50.3721V52.582L72.3262 55.2275L36.9092 32.9062L1.68359 55.2217L0 52.5742V50.3691L36.9004 26.9941L36.9688 27.1016Z" fill="url(#paint0_linear_636_357)"/>
<path d="M40 89H35V55.3564L40 50.7148V89Z" fill="url(#paint1_linear_636_357)"/>
<path d="M74 56H60V89H55V56H46.7871L41.3711 51H74V56Z" fill="url(#paint2_linear_636_357)"/>
<path d="M25.9678 55.9941H5V66H18.877L18.875 65.959C22.7508 65.7649 25.9237 67.0612 28.1357 69.2764C30.3089 71.4527 31.4229 74.3821 31.4961 77.2734C31.5692 80.1684 30.5997 83.1602 28.4316 85.417C26.426 87.5046 23.5592 88.7926 20 88.9268V89H0V51H5V50.9941H31.3262L25.9678 55.9941ZM20.4834 71H5V84H19.0625L19.0645 83.9355C21.9078 84.0089 23.7249 83.0994 24.8262 81.9531C25.9612 80.7717 26.5416 79.125 26.498 77.4004C26.4544 75.6722 25.7858 73.9995 24.5977 72.8096C23.6642 71.8748 22.323 71.1488 20.4834 70.9775V71Z" fill="url(#paint3_linear_636_357)"/>
<path d="M37 46H34V43H37V46ZM41 46H38V43H41V46ZM37 42H34V39H37V42ZM41 42H38V39H41V42Z" fill="url(#paint4_linear_636_357)"/>
<path d="M75.62 39V26.4H82.316V27.804H77.024V31.692H79.364C80.204 31.692 80.912 31.848 81.488 32.16C82.064 32.46 82.496 32.886 82.784 33.438C83.084 33.99 83.234 34.644 83.234 35.4C83.234 36.576 82.88 37.47 82.172 38.082C81.464 38.694 80.522 39 79.346 39H75.62ZM77.024 37.74H79.364C80.096 37.74 80.69 37.542 81.146 37.146C81.602 36.75 81.83 36.168 81.83 35.4C81.83 34.596 81.602 33.99 81.146 33.582C80.69 33.162 80.096 32.952 79.364 32.952H77.024V37.74ZM85.9606 42.96L85.4386 41.664C86.0626 41.484 86.5186 41.19 86.8066 40.782C87.0946 40.374 87.3286 39.876 87.5086 39.288L87.7426 38.514L84.5026 30H86.0146L88.1746 35.67L88.3366 36.642C88.3606 36.738 88.4026 36.786 88.4626 36.786C88.5346 36.786 88.5766 36.738 88.5886 36.642L88.8046 35.67L90.5506 30H92.0446L88.8586 39.864C88.6186 40.608 88.2586 41.244 87.7786 41.772C87.2986 42.3 86.6926 42.696 85.9606 42.96ZM92.2194 41.34V37.74H92.7414C92.9574 37.608 93.1374 37.452 93.2814 37.272C93.4374 37.08 93.5454 36.864 93.6054 36.624C93.7014 36.204 93.7794 35.706 93.8394 35.13C93.8994 34.554 93.9474 33.852 93.9834 33.024C94.0194 32.184 94.0434 31.176 94.0554 30H99.6894V37.74H100.769V41.34H99.4734V39H93.5154V41.34H92.2194ZM94.8114 37.74H98.2494V31.26H95.4234C95.3994 32.436 95.3454 33.486 95.2614 34.41C95.1774 35.334 95.1054 36 95.0454 36.408L94.6134 37.416C94.5294 37.632 94.5954 37.74 94.8114 37.74ZM102.794 39V30H104.234V35.49L104.036 36.696C104.024 36.78 104.048 36.84 104.108 36.876C104.168 36.9 104.222 36.87 104.27 36.786L108.284 30H109.634V39H108.194V33.528L108.374 32.358C108.398 32.262 108.38 32.202 108.32 32.178C108.26 32.142 108.194 32.184 108.122 32.304L104.162 39H102.794ZM112.69 39V30H114.13V33.78H117.856V30H119.296V39H117.856V35.04H114.13V39H112.69ZM125.418 39.198C124.374 39.198 123.558 38.904 122.97 38.316C122.382 37.716 122.034 36.972 121.926 36.084C121.854 35.508 121.818 34.986 121.818 34.518C121.818 34.266 121.824 34.014 121.836 33.762C121.86 33.498 121.89 33.216 121.926 32.916C122.034 32.016 122.382 31.272 122.97 30.684C123.558 30.096 124.374 29.802 125.418 29.802C126.462 29.802 127.278 30.096 127.866 30.684C128.454 31.272 128.802 32.016 128.91 32.916C128.982 33.504 129.018 34.038 129.018 34.518C129.018 34.986 128.982 35.508 128.91 36.084C128.802 36.972 128.454 37.716 127.866 38.316C127.278 38.904 126.462 39.198 125.418 39.198ZM125.418 37.956C126.078 37.956 126.582 37.764 126.93 37.38C127.278 36.996 127.476 36.546 127.524 36.03C127.572 35.49 127.596 34.992 127.596 34.536C127.596 34.068 127.572 33.558 127.524 33.006C127.476 32.478 127.278 32.028 126.93 31.656C126.582 31.272 126.078 31.08 125.418 31.08C124.758 31.08 124.248 31.272 123.888 31.656C123.528 32.028 123.33 32.478 123.294 33.006C123.258 33.558 123.24 34.068 123.24 34.536C123.24 34.992 123.264 35.49 123.312 36.03C123.372 36.546 123.57 36.996 123.906 37.38C124.254 37.764 124.758 37.956 125.418 37.956ZM131.534 39V30H133.01V33.78H134.252L136.538 30H138.068L135.314 34.662L135.116 33.762L138.23 39H136.61L134.216 35.04H133.01V39H131.534ZM74.9 64V62.632H77.06V52.768H74.9V51.4H80.714V52.768H78.554V62.632H80.714V64H74.9ZM83.1413 64V55H84.5813V58.78H88.3073V55H89.7473V64H88.3073V60.04H84.5813V64H83.1413ZM96.5893 68.536V64.234C96.5893 64.03 96.4933 63.94 96.3013 63.964L95.1313 64.054C94.6873 63.994 94.2673 63.832 93.8713 63.568C93.4753 63.304 93.1453 62.962 92.8813 62.542C92.6173 62.122 92.4493 61.648 92.3773 61.12C92.3413 60.82 92.3113 60.544 92.2873 60.292C92.2753 60.028 92.2693 59.77 92.2693 59.518C92.2693 59.266 92.2753 59.014 92.2873 58.762C92.3113 58.498 92.3413 58.216 92.3773 57.916C92.4253 57.388 92.5813 56.914 92.8453 56.494C93.1213 56.074 93.4573 55.732 93.8533 55.468C94.2613 55.192 94.6873 55.03 95.1313 54.982L96.3013 55.072C96.4933 55.096 96.5893 55.006 96.5893 54.802V50.5H97.9213V54.802C97.9213 55.006 98.0173 55.096 98.2093 55.072L99.3793 54.982C99.8233 55.03 100.243 55.192 100.639 55.468C101.035 55.732 101.365 56.074 101.629 56.494C101.905 56.914 102.073 57.388 102.133 57.916C102.169 58.216 102.193 58.498 102.205 58.762C102.229 59.014 102.241 59.266 102.241 59.518C102.241 59.77 102.229 60.028 102.205 60.292C102.193 60.544 102.169 60.82 102.133 61.12C102.073 61.648 101.905 62.122 101.629 62.542C101.365 62.962 101.035 63.304 100.639 63.568C100.243 63.832 99.8233 63.994 99.3793 64.054L98.2093 63.964C98.0173 63.94 97.9213 64.03 97.9213 64.234V68.536H96.5893ZM96.5893 63.046V55.99C95.6653 55.99 94.9813 56.194 94.5373 56.602C94.0933 57.01 93.8413 57.478 93.7813 58.006C93.7573 58.282 93.7333 58.546 93.7093 58.798C93.6973 59.05 93.6913 59.296 93.6913 59.536C93.6913 59.992 93.7273 60.49 93.7993 61.03C93.8833 61.558 94.1353 62.026 94.5553 62.434C94.9873 62.842 95.6653 63.046 96.5893 63.046ZM97.9213 63.046C98.8453 63.046 99.5173 62.842 99.9373 62.434C100.369 62.026 100.627 61.558 100.711 61.03C100.759 60.754 100.789 60.496 100.801 60.256C100.825 60.004 100.837 59.764 100.837 59.536C100.837 59.068 100.801 58.558 100.729 58.006C100.669 57.478 100.417 57.01 99.9733 56.602C99.5293 56.194 98.8453 55.99 97.9213 55.99V63.046ZM107.822 64.198C106.778 64.198 105.962 63.904 105.374 63.316C104.786 62.716 104.438 61.972 104.33 61.084C104.258 60.508 104.222 59.986 104.222 59.518C104.222 59.266 104.228 59.014 104.24 58.762C104.264 58.498 104.294 58.216 104.33 57.916C104.438 57.016 104.786 56.272 105.374 55.684C105.962 55.096 106.778 54.802 107.822 54.802C108.866 54.802 109.682 55.096 110.27 55.684C110.858 56.272 111.206 57.016 111.314 57.916C111.386 58.504 111.422 59.038 111.422 59.518C111.422 59.986 111.386 60.508 111.314 61.084C111.206 61.972 110.858 62.716 110.27 63.316C109.682 63.904 108.866 64.198 107.822 64.198ZM107.822 62.956C108.482 62.956 108.986 62.764 109.334 62.38C109.682 61.996 109.88 61.546 109.928 61.03C109.976 60.49 110 59.992 110 59.536C110 59.068 109.976 58.558 109.928 58.006C109.88 57.478 109.682 57.028 109.334 56.656C108.986 56.272 108.482 56.08 107.822 56.08C107.162 56.08 106.652 56.272 106.292 56.656C105.932 57.028 105.734 57.478 105.698 58.006C105.662 58.558 105.644 59.068 105.644 59.536C105.644 59.992 105.668 60.49 105.716 61.03C105.776 61.546 105.974 61.996 106.31 62.38C106.658 62.764 107.162 62.956 107.822 62.956ZM113.938 67.6V55H115.378V55.504C115.618 55.3 115.93 55.138 116.314 55.018C116.698 54.886 117.1 54.82 117.52 54.82C118.564 54.82 119.362 55.108 119.914 55.684C120.466 56.248 120.784 56.986 120.868 57.898C120.892 58.198 120.91 58.474 120.922 58.726C120.934 58.978 120.94 59.23 120.94 59.482C120.94 59.722 120.934 59.974 120.922 60.238C120.91 60.49 120.892 60.772 120.868 61.084C120.784 61.996 120.466 62.74 119.914 63.316C119.362 63.892 118.564 64.18 117.52 64.18C117.316 64.18 117.154 64.168 117.034 64.144C116.926 64.132 116.8 64.114 116.656 64.09L115.756 63.514C115.66 63.454 115.57 63.448 115.486 63.496C115.414 63.532 115.378 63.604 115.378 63.712V67.6H113.938ZM117.358 62.956C118.078 62.956 118.594 62.764 118.906 62.38C119.23 61.996 119.416 61.534 119.464 60.994C119.5 60.502 119.518 60.004 119.518 59.5C119.53 58.996 119.512 58.498 119.464 58.006C119.416 57.466 119.23 57.01 118.906 56.638C118.594 56.266 118.078 56.08 117.358 56.08C116.734 56.08 116.248 56.224 115.9 56.512C115.552 56.788 115.378 57.172 115.378 57.664V61.336C115.378 61.816 115.552 62.206 115.9 62.506C116.248 62.806 116.734 62.956 117.358 62.956ZM123.466 64V55H124.69L127.714 60.22C127.774 60.328 127.84 60.382 127.912 60.382C127.984 60.382 128.05 60.328 128.11 60.22L131.134 55H132.358V64H130.954V59.068L131.134 57.934C131.146 57.85 131.122 57.796 131.062 57.772C131.014 57.748 130.96 57.784 130.9 57.88L128.362 62.11H127.462L124.924 57.88C124.876 57.784 124.822 57.748 124.762 57.772C124.702 57.796 124.678 57.85 124.69 57.934L124.87 59.068V64H123.466ZM140.603 64.216L140.009 63.334C139.937 63.226 139.853 63.214 139.757 63.298C139.469 63.55 139.163 63.766 138.839 63.946C138.527 64.114 138.107 64.198 137.579 64.198C136.727 64.198 136.049 63.964 135.545 63.496C135.041 63.028 134.789 62.416 134.789 61.66C134.789 61.12 134.903 60.664 135.131 60.292C135.371 59.92 135.707 59.638 136.139 59.446C136.571 59.242 137.075 59.14 137.651 59.14H139.757V57.844C139.757 57.328 139.607 56.914 139.307 56.602C139.007 56.29 138.533 56.134 137.885 56.134C137.417 56.134 136.997 56.206 136.625 56.35C136.253 56.482 135.875 56.698 135.491 56.998L135.041 55.738C135.497 55.39 135.959 55.144 136.427 55C136.895 54.856 137.411 54.784 137.975 54.784C139.043 54.784 139.835 55.06 140.351 55.612C140.879 56.164 141.143 56.854 141.143 57.682V62.272L141.917 63.424L140.603 64.216ZM137.651 62.956C138.299 62.956 138.809 62.8 139.181 62.488C139.565 62.176 139.757 61.762 139.757 61.246V60.436C139.757 60.208 139.649 60.124 139.433 60.184L138.443 60.4H137.759C137.279 60.4 136.901 60.508 136.625 60.724C136.361 60.928 136.229 61.222 136.229 61.606C136.229 62.002 136.355 62.326 136.607 62.578C136.871 62.83 137.219 62.956 137.651 62.956ZM144.26 64V55H145.7V62.74H149.48V55H150.92V64H144.26ZM150.704 66.34V62.74H152V66.34H150.704ZM154.875 64V56.26H153.615V55H156.315V64H154.875ZM154.875 53.2V51.4H156.315V53.2H154.875ZM159.378 64V55H160.818V60.49L160.62 61.696C160.608 61.78 160.632 61.84 160.692 61.876C160.752 61.9 160.806 61.87 160.854 61.786L164.868 55H166.218V64H164.778V58.528L164.958 57.358C164.982 57.262 164.964 57.202 164.904 57.178C164.844 57.142 164.778 57.184 164.706 57.304L160.746 64H159.378ZM162.708 53.074C162.072 53.074 161.49 52.906 160.962 52.57C160.446 52.234 160.104 51.718 159.936 51.022L161.016 50.716C161.16 51.124 161.364 51.442 161.628 51.67C161.904 51.898 162.264 52.012 162.708 52.012C163.164 52.012 163.524 51.898 163.788 51.67C164.052 51.442 164.256 51.124 164.4 50.716L165.48 51.022C165.324 51.718 164.982 52.234 164.454 52.57C163.926 52.906 163.344 53.074 162.708 53.074ZM169.274 64V55H170.714V58.78H174.44V55H175.88V64H174.44V60.04H170.714V64H169.274ZM178.942 64V55H180.382V60.49L180.184 61.696C180.172 61.78 180.196 61.84 180.256 61.876C180.316 61.9 180.37 61.87 180.418 61.786L184.432 55H185.782V64H184.342V58.528L184.522 57.358C184.546 57.262 184.528 57.202 184.468 57.178C184.408 57.142 184.342 57.184 184.27 57.304L180.31 64H178.942ZM187.849 64L190.693 59.5L187.849 55H189.541L191.125 57.736L191.449 58.528C191.473 58.588 191.515 58.618 191.575 58.618C191.635 58.618 191.677 58.588 191.701 58.528L192.025 57.736L193.573 55H195.265L192.457 59.5L195.265 64H193.573L192.025 61.264L191.701 60.472C191.677 60.412 191.635 60.382 191.575 60.382C191.515 60.382 191.473 60.412 191.449 60.472L191.125 61.264L189.541 64H187.849ZM77.636 89V77.804H74.54V76.4H82.244V77.804H79.13V89H77.636ZM85.8339 89.18C85.1019 89.18 84.4839 89.048 83.9799 88.784C83.4759 88.508 83.0799 88.136 82.7919 87.668C82.5159 87.2 82.3419 86.672 82.2699 86.084C82.2339 85.796 82.2039 85.526 82.1799 85.274C82.1679 85.022 82.1619 84.77 82.1619 84.518C82.1619 84.038 82.1979 83.504 82.2699 82.916C82.3659 82.028 82.7019 81.29 83.2779 80.702C83.8659 80.114 84.6639 79.82 85.6719 79.82C86.4039 79.82 86.9919 79.952 87.4359 80.216C87.8799 80.48 88.2159 80.822 88.4439 81.242C88.6719 81.662 88.8219 82.106 88.8939 82.574C88.9779 83.042 89.0199 83.474 89.0199 83.87L88.6599 84.824L83.2239 84.806V83.564H87.6519C87.6519 83.156 87.5979 82.766 87.4899 82.394C87.3939 82.01 87.2019 81.698 86.9139 81.458C86.6259 81.206 86.2119 81.08 85.6719 81.08C85.0359 81.08 84.5439 81.278 84.1959 81.674C83.8479 82.058 83.6499 82.502 83.6019 83.006C83.5779 83.306 83.5539 83.72 83.5299 84.248C83.5179 84.764 83.5479 85.352 83.6199 86.012C83.6799 86.528 83.8779 86.984 84.2139 87.38C84.5619 87.764 85.1019 87.956 85.8339 87.956C86.2899 87.956 86.7219 87.884 87.1299 87.74C87.5499 87.596 87.9279 87.392 88.2639 87.128L88.6959 88.226C88.2039 88.574 87.7539 88.82 87.3459 88.964C86.9379 89.108 86.4339 89.18 85.8339 89.18ZM90.0263 89L92.8703 84.5L90.0263 80H91.7183L93.3023 82.736L93.6263 83.528C93.6503 83.588 93.6923 83.618 93.7523 83.618C93.8123 83.618 93.8543 83.588 93.8783 83.528L94.2023 82.736L95.7503 80H97.4423L94.6343 84.5L97.4423 89H95.7503L94.2023 86.264L93.8783 85.472C93.8543 85.412 93.8123 85.382 93.7523 85.382C93.6923 85.382 93.6503 85.412 93.6263 85.472L93.3023 86.264L91.7183 89H90.0263ZM99.5066 89V80H100.947V83.78H104.673V80H106.113V89H104.673V85.04H100.947V89H99.5066ZM112.235 89.198C111.191 89.198 110.375 88.904 109.787 88.316C109.199 87.716 108.851 86.972 108.743 86.084C108.671 85.508 108.635 84.986 108.635 84.518C108.635 84.266 108.641 84.014 108.653 83.762C108.677 83.498 108.707 83.216 108.743 82.916C108.851 82.016 109.199 81.272 109.787 80.684C110.375 80.096 111.191 79.802 112.235 79.802C113.279 79.802 114.095 80.096 114.683 80.684C115.271 81.272 115.619 82.016 115.727 82.916C115.799 83.504 115.835 84.038 115.835 84.518C115.835 84.986 115.799 85.508 115.727 86.084C115.619 86.972 115.271 87.716 114.683 88.316C114.095 88.904 113.279 89.198 112.235 89.198ZM112.235 87.956C112.895 87.956 113.399 87.764 113.747 87.38C114.095 86.996 114.293 86.546 114.341 86.03C114.389 85.49 114.413 84.992 114.413 84.536C114.413 84.068 114.389 83.558 114.341 83.006C114.293 82.478 114.095 82.028 113.747 81.656C113.399 81.272 112.895 81.08 112.235 81.08C111.575 81.08 111.065 81.272 110.705 81.656C110.345 82.028 110.147 82.478 110.111 83.006C110.075 83.558 110.057 84.068 110.057 84.536C110.057 84.992 110.081 85.49 110.129 86.03C110.189 86.546 110.387 86.996 110.723 87.38C111.071 87.764 111.575 87.956 112.235 87.956ZM117.648 89.18L117.198 88.01C117.57 87.902 117.888 87.734 118.152 87.506C118.428 87.266 118.608 86.972 118.692 86.624C118.788 86.204 118.866 85.706 118.926 85.13C118.986 84.554 119.034 83.852 119.07 83.024C119.106 82.184 119.13 81.176 119.142 80H124.65V89H123.21V81.26H120.51C120.486 82.436 120.426 83.504 120.33 84.464C120.234 85.424 120.132 86.216 120.024 86.84C119.892 87.524 119.61 88.052 119.178 88.424C118.758 88.796 118.248 89.048 117.648 89.18ZM130.762 89.198C129.718 89.198 128.902 88.904 128.314 88.316C127.726 87.716 127.378 86.972 127.27 86.084C127.198 85.508 127.162 84.986 127.162 84.518C127.162 84.266 127.168 84.014 127.18 83.762C127.204 83.498 127.234 83.216 127.27 82.916C127.378 82.016 127.726 81.272 128.314 80.684C128.902 80.096 129.718 79.802 130.762 79.802C131.806 79.802 132.622 80.096 133.21 80.684C133.798 81.272 134.146 82.016 134.254 82.916C134.326 83.504 134.362 84.038 134.362 84.518C134.362 84.986 134.326 85.508 134.254 86.084C134.146 86.972 133.798 87.716 133.21 88.316C132.622 88.904 131.806 89.198 130.762 89.198ZM130.762 87.956C131.422 87.956 131.926 87.764 132.274 87.38C132.622 86.996 132.82 86.546 132.868 86.03C132.916 85.49 132.94 84.992 132.94 84.536C132.94 84.068 132.916 83.558 132.868 83.006C132.82 82.478 132.622 82.028 132.274 81.656C131.926 81.272 131.422 81.08 130.762 81.08C130.102 81.08 129.592 81.272 129.232 81.656C128.872 82.028 128.674 82.478 128.638 83.006C128.602 83.558 128.584 84.068 128.584 84.536C128.584 84.992 128.608 85.49 128.656 86.03C128.716 86.546 128.914 86.996 129.25 87.38C129.598 87.764 130.102 87.956 130.762 87.956ZM136.878 89V80H142.188V81.26H138.318V89H136.878ZM144.89 89V81.26H143.63V80H146.33V89H144.89ZM144.89 78.2V76.4H146.33V78.2H144.89ZM149.393 89V80H150.833V85.49L150.635 86.696C150.623 86.78 150.647 86.84 150.707 86.876C150.767 86.9 150.821 86.87 150.869 86.786L154.883 80H156.233V89H154.793V83.528L154.973 82.358C154.997 82.262 154.979 82.202 154.919 82.178C154.859 82.142 154.793 82.184 154.721 82.304L150.761 89H149.393ZM152.723 78.074C152.087 78.074 151.505 77.906 150.977 77.57C150.461 77.234 150.119 76.718 149.951 76.022L151.031 75.716C151.175 76.124 151.379 76.442 151.643 76.67C151.919 76.898 152.279 77.012 152.723 77.012C153.179 77.012 153.539 76.898 153.803 76.67C154.067 76.442 154.271 76.124 154.415 75.716L155.495 76.022C155.339 76.718 154.997 77.234 154.469 77.57C153.941 77.906 153.359 78.074 152.723 78.074Z" fill="black" fill-opacity="0.8"/>
<defs>
<linearGradient id="paint0_linear_636_357" x1="74" y1="50.4941" x2="13" y2="30.9941" gradientUnits="userSpaceOnUse">
<stop stop-color="#0071DF"/>
<stop offset="1" stop-color="#003D79"/>
</linearGradient>
<linearGradient id="paint1_linear_636_357" x1="38" y1="88.9941" x2="38" y2="42.4941" gradientUnits="userSpaceOnUse">
<stop stop-color="#003D79"/>
<stop offset="1" stop-color="#0071DF"/>
</linearGradient>
<linearGradient id="paint2_linear_636_357" x1="58" y1="88.9941" x2="58" y2="50.9941" gradientUnits="userSpaceOnUse">
<stop stop-color="#003D79"/>
<stop offset="1" stop-color="#0071DF"/>
</linearGradient>
<linearGradient id="paint3_linear_636_357" x1="20" y1="60.9941" x2="50" y2="46.9941" gradientUnits="userSpaceOnUse">
<stop stop-color="#003D79"/>
<stop offset="1" stop-color="#0071DF"/>
</linearGradient>
<linearGradient id="paint4_linear_636_357" x1="34" y1="45.9941" x2="41" y2="38.9941" gradientUnits="userSpaceOnUse">
<stop stop-color="#003D79"/>
<stop offset="1" stop-color="#0071DF"/>
</linearGradient>
</defs>
</svg>
