<svg width="32" height="32" viewBox="0 0 32 32" fill="none" xmlns="http://www.w3.org/2000/svg">
<path d="M16 6.25C11.4648 6.25 7.75 9.96484 7.75 14.5V19C7.75 19.9697 8.38281 20.7959 9.25 21.1094V21.25C9.25 23.3096 10.9404 25 13 25H13.9609C14.2217 25.4482 14.6963 25.75 15.25 25.75H16.75C17.5762 25.75 18.25 25.0762 18.25 24.25C18.25 23.4238 17.5762 22.75 16.75 22.75H15.25C14.6963 22.75 14.2217 23.0518 13.9609 23.5H13C11.7578 23.5 10.75 22.4922 10.75 21.25H12.25V14.5H9.25C9.25 10.7852 12.2852 7.75 16 7.75C19.7148 7.75 22.75 10.7852 22.75 14.5H19.75V21.25H22C23.2334 21.25 24.25 20.2334 24.25 19V14.5C24.25 9.96484 20.5352 6.25 16 6.25ZM9.25 16H10.75V19.75H10C9.58398 19.75 9.25 19.416 9.25 19V16ZM21.25 16H22.75V19C22.75 19.416 22.416 19.75 22 19.75H21.25V16Z" fill="#0071DF"/>
<circle cx="16" cy="16" r="16" fill="#6DB7FF" fill-opacity="0.3"/>
</svg>
