<svg width="32" height="32" viewBox="0 0 32 32" fill="none" xmlns="http://www.w3.org/2000/svg">
<path d="M7.9375 6.0625L7.51562 6.46094L6.46094 7.51562L6.0625 7.9375L6.36719 8.42969L7.9375 11.0547L8.14844 11.4297H10.3516L13.3516 14.4062C10.6709 17.0986 7.26074 20.5205 7.14062 20.6406C5.96582 21.8154 5.96289 23.7402 7.16406 24.8594C8.33594 26.0166 10.2461 26.0459 11.3594 24.8594C11.3682 24.8506 11.374 24.8447 11.3828 24.8359L16 20.1953L20.6406 24.8594L20.7109 24.9062C21.8887 26.0166 23.7607 26.0312 24.8594 24.8594V24.8359H24.8828C26.0312 23.6611 26.043 21.751 24.8594 20.6406L24.8359 20.6172L20.9219 16.7266C23.5557 16.4805 25.6182 14.2568 25.6562 11.5703H25.6797C25.6826 11.5557 25.6797 11.5381 25.6797 11.5234C25.6797 11.5146 25.6797 11.5088 25.6797 11.5C25.7529 10.6328 25.5654 9.80371 25.1172 9.08594L24.6016 8.28906L21.1094 11.7812L20.0547 10.6797L23.6172 7.11719L22.5859 6.69531C21.9824 6.4375 21.2852 6.25 20.5 6.25C17.6172 6.25 15.25 8.61719 15.25 11.5C15.25 11.8135 15.3174 12.0859 15.3672 12.3672C15.0391 12.6953 14.793 12.9648 14.4062 13.3516L11.4297 10.375V8.14844L11.0547 7.9375L8.42969 6.36719L7.9375 6.0625ZM20.5 7.75C20.6055 7.75 20.6787 7.81152 20.7812 7.82031L17.9453 10.6562L18.4609 11.1953L20.5703 13.375L21.0859 13.9141L24.0625 10.9375C24.0771 11.1104 24.2002 11.2363 24.1797 11.4297V11.5C24.1797 13.5654 22.4951 15.25 20.4297 15.25C20.1543 15.25 19.8203 15.1855 19.4453 15.1094L19.0469 15.0391L18.7656 15.3203L10.3047 23.8047H10.2812V23.8281C9.74805 24.4111 8.81641 24.4258 8.19531 23.8047V23.7812H8.17188C7.58887 23.248 7.57422 22.3164 8.19531 21.6953C8.47949 21.4111 13.9844 15.8594 16.6797 13.1641L16.9844 12.8594L16.8672 12.4375C16.8057 12.1943 16.75 11.7754 16.75 11.5C16.75 9.43457 18.4346 7.75 20.5 7.75ZM8.17188 7.9375L9.92969 9.01562V9.76562L9.76562 9.92969H9.01562L7.9375 8.17187L8.17188 7.9375ZM19.1406 17.0547L23.8047 21.6953V21.7187H23.8281C24.4111 22.252 24.4258 23.1836 23.8047 23.8047H23.7812V23.8281C23.248 24.4111 22.3164 24.4258 21.6953 23.8047L17.0547 19.1406L19.1406 17.0547Z" fill="#0071DF"/>
<circle cx="16" cy="16" r="16" fill="#6DB7FF" fill-opacity="0.3"/>
</svg>
