<svg width="32" height="32" viewBox="0 0 32 32" fill="none" xmlns="http://www.w3.org/2000/svg">
<circle cx="16" cy="16" r="16" fill="#0071DF"/>
<path d="M10.4919 6.25C10.0993 6.25 9.71258 6.39063 9.39031 6.64844L9.34344 6.67188L9.32 6.69531L6.97625 9.10938L6.99969 9.13281C6.27605 9.80078 6.0534 10.7998 6.36687 11.6641C6.3698 11.6699 6.36394 11.6816 6.36687 11.6875C7.00262 13.5068 8.62859 17.0195 11.8044 20.1953C14.9919 23.3828 18.5514 24.9443 20.3122 25.6328H20.3356C21.2468 25.9375 22.2341 25.7207 22.9372 25.1172L25.3044 22.75C25.9255 22.1289 25.9255 21.0508 25.3044 20.4297L22.2575 17.3828L22.2341 17.3359C21.613 16.7148 20.5114 16.7148 19.8903 17.3359L18.3903 18.8359C17.8483 18.5752 16.5563 17.9072 15.32 16.7266C14.0925 15.5547 13.4655 14.207 13.2341 13.6797L14.7341 12.1797C15.3639 11.5498 15.3757 10.501 14.7106 9.88281L14.7341 9.85938L14.6637 9.78906L11.6637 6.69531L11.6403 6.67188L11.5934 6.64844C11.2712 6.39063 10.8845 6.25 10.4919 6.25ZM10.4919 7.75C10.5475 7.75 10.6032 7.77637 10.6559 7.82031L13.6559 10.8906L13.7262 10.9609C13.7204 10.9551 13.7702 11.0342 13.6794 11.125L11.8044 13L11.4528 13.3281L11.6169 13.7969C11.6169 13.7969 12.4782 16.1025 14.2887 17.8281L14.4528 17.9688C16.196 19.5596 18.2497 20.4297 18.2497 20.4297L18.7184 20.6406L20.945 18.4141C21.0739 18.2852 21.0505 18.2852 21.1794 18.4141L24.2497 21.4844C24.3786 21.6133 24.3786 21.5664 24.2497 21.6953L21.9528 23.9922C21.6071 24.2881 21.2409 24.3496 20.8044 24.2031C19.1052 23.5352 15.8034 22.085 12.8591 19.1406C9.89129 16.1729 8.34148 12.8066 7.77312 11.1719C7.65887 10.8672 7.7409 10.416 8.0075 10.1875L8.05437 10.1406L10.3278 7.82031C10.3805 7.77637 10.4362 7.75 10.4919 7.75Z" fill="white"/>
</svg>
