<svg width="24" height="24" viewBox="0 0 24 24" fill="none" xmlns="http://www.w3.org/2000/svg">
<path d="M12 2.25C7.46484 2.25 3.75 5.96484 3.75 10.5V15C3.75 15.9697 4.38281 16.7959 5.25 17.1094V17.25C5.25 19.3096 6.94043 21 9 21H9.96094C10.2217 21.4482 10.6963 21.75 11.25 21.75H12.75C13.5762 21.75 14.25 21.0762 14.25 20.25C14.25 19.4238 13.5762 18.75 12.75 18.75H11.25C10.6963 18.75 10.2217 19.0518 9.96094 19.5H9C7.75781 19.5 6.75 18.4922 6.75 17.25H8.25V10.5H5.25C5.25 6.78516 8.28516 3.75 12 3.75C15.7148 3.75 18.75 6.78516 18.75 10.5H15.75V17.25H18C19.2334 17.25 20.25 16.2334 20.25 15V10.5C20.25 5.96484 16.5352 2.25 12 2.25ZM5.25 12H6.75V15.75H6C5.58398 15.75 5.25 15.416 5.25 15V12ZM17.25 12H18.75V15C18.75 15.416 18.416 15.75 18 15.75H17.25V12Z" fill="black"/>
</svg>
