<svg width="24" height="24" viewBox="0 0 24 24" fill="none" xmlns="http://www.w3.org/2000/svg">
<path d="M3.9375 2.0625L3.51562 2.46094L2.46094 3.51562L2.0625 3.9375L2.36719 4.42969L3.9375 7.05469L4.14844 7.42969H6.35156L9.35156 10.4062C6.6709 13.0986 3.26074 16.5205 3.14062 16.6406C1.96582 17.8154 1.96289 19.7402 3.16406 20.8594C4.33594 22.0166 6.24609 22.0459 7.35938 20.8594C7.36816 20.8506 7.37402 20.8447 7.38281 20.8359L12 16.1953L16.6406 20.8594L16.7109 20.9062C17.8887 22.0166 19.7607 22.0312 20.8594 20.8594V20.8359H20.8828C22.0312 19.6611 22.043 17.751 20.8594 16.6406L20.8359 16.6172L16.9219 12.7266C19.5557 12.4805 21.6182 10.2568 21.6562 7.57031H21.6797C21.6826 7.55566 21.6797 7.53809 21.6797 7.52344C21.6797 7.51465 21.6797 7.50879 21.6797 7.5C21.7529 6.63281 21.5654 5.80371 21.1172 5.08594L20.6016 4.28906L17.1094 7.78125L16.0547 6.67969L19.6172 3.11719L18.5859 2.69531C17.9824 2.4375 17.2852 2.25 16.5 2.25C13.6172 2.25 11.25 4.61719 11.25 7.5C11.25 7.81348 11.3174 8.08594 11.3672 8.36719C11.0391 8.69531 10.793 8.96484 10.4062 9.35156L7.42969 6.375V4.14844L7.05469 3.9375L4.42969 2.36719L3.9375 2.0625ZM16.5 3.75C16.6055 3.75 16.6787 3.81152 16.7812 3.82031L13.9453 6.65625L14.4609 7.19531L16.5703 9.375L17.0859 9.91406L20.0625 6.9375C20.0771 7.11035 20.2002 7.23633 20.1797 7.42969V7.5C20.1797 9.56543 18.4951 11.25 16.4297 11.25C16.1543 11.25 15.8203 11.1855 15.4453 11.1094L15.0469 11.0391L14.7656 11.3203L6.30469 19.8047H6.28125V19.8281C5.74805 20.4111 4.81641 20.4258 4.19531 19.8047V19.7812H4.17188C3.58887 19.248 3.57422 18.3164 4.19531 17.6953C4.47949 17.4111 9.98438 11.8594 12.6797 9.16406L12.9844 8.85937L12.8672 8.4375C12.8057 8.19434 12.75 7.77539 12.75 7.5C12.75 5.43457 14.4346 3.75 16.5 3.75ZM4.17188 3.9375L5.92969 5.01562V5.76562L5.76562 5.92969H5.01562L3.9375 4.17187L4.17188 3.9375ZM15.1406 13.0547L19.8047 17.6953V17.7187H19.8281C20.4111 18.252 20.4258 19.1836 19.8047 19.8047H19.7812V19.8281C19.248 20.4111 18.3164 20.4258 17.6953 19.8047L13.0547 15.1406L15.1406 13.0547Z" fill="black"/>
</svg>
